<svg width="92" height="70" viewBox="0 0 92 70" fill="none" xmlns="http://www.w3.org/2000/svg">
<path d="M67.0509 44.2095C67.0509 55.7751 57.6261 65.1509 46 65.1509C34.3739 65.1509 24.9492 55.7751 24.9492 44.2095C24.9492 32.6439 34.3739 23.2682 46 23.2682C57.6261 23.2682 67.0509 32.6439 67.0509 44.2095Z" fill="#C4C4C4"/>
<path d="M41.3488 46.93C40.0436 44.1207 41.2541 40.794 44.039 39.5136C46.8179 38.2359 50.1336 39.4815 51.4388 42.2908L78.9607 57.6348L48.4461 49.8467C45.7305 50.8928 42.6059 49.6358 41.3488 46.93Z" fill="#030104"/>
<path d="M13.4731 13.4629C22.1616 4.78117 33.7132 0 46 0C58.287 0 69.8388 4.78117 78.5271 13.4629C87.2154 22.1446 92 33.6874 92 45.9651C92 53.8926 90.0013 61.5113 86.2486 68.2533H77.651L71.3627 64.6251L74.1398 59.8185L82.2256 64.4837C85.0822 58.9261 86.696 52.6305 86.696 45.9651C86.696 44.7855 86.6423 43.6181 86.5435 42.4636L76.9022 44.1623L75.9377 38.6964L85.6924 36.9778C83.9493 29.2875 80.0192 22.4178 74.5921 17.0576L67.9829 24.9283L63.7279 21.3608L70.3872 13.4307C64.2808 8.84887 56.8477 5.94297 48.7771 5.39711V15.9236H43.2229V5.39711C35.1523 5.9434 27.7192 8.84909 21.6125 13.4309L28.2721 21.3608L24.0173 24.9283L17.4079 17.0574C11.981 22.4178 8.05087 29.2875 6.30781 36.9776L16.0623 38.6966L15.0975 44.1621L5.45697 42.4632C5.35809 43.6179 5.30447 44.7851 5.30447 45.9647C5.30447 52.6305 6.91757 58.9263 9.77464 64.4835L17.8607 59.8187L20.6375 64.6251L14.3494 68.2528H5.75145C1.99851 61.5109 0 53.8922 0 45.9647C-0.000213623 33.6872 4.785 22.1442 13.4731 13.4629Z" fill="#030104"/>
</svg>
