<svg width="31" height="50" fill="none" xmlns="http://www.w3.org/2000/svg"><path fill-rule="evenodd" clip-rule="evenodd" d="M15.311 15.508c.694.931 1.932 1.614 3.984 1.339 3.602-.483 6.39.599 8.063 2.67 1.632 2.02 2.006 4.747 1.304 7.193-.71 2.472-2.536 4.737-5.404 5.873-2.864 1.134-6.59 1.077-11.042-.711-3.867-1.554-6.09-1.302-7.287-.602-1.167.683-1.851 2.091-1.923 4.083-.071 1.973.489 4.22 1.452 6.037.997 1.88 2.218 2.935 3.238 3.14l-.591 2.94c-2.34-.47-4.147-2.504-5.298-4.675-1.184-2.235-1.891-5-1.799-7.55.091-2.532 1-5.157 3.406-6.564 2.376-1.39 5.705-1.287 9.92.407 3.947 1.586 6.855 1.484 8.82.706 1.96-.777 3.159-2.29 3.624-3.912.474-1.648.176-3.329-.754-4.48-.888-1.1-2.551-1.954-5.331-1.582-2.987.4-5.36-.604-6.788-2.52-1.376-1.847-1.711-4.326-1.17-6.645.545-2.343 2.003-4.639 4.387-6.197 2.394-1.567 5.626-2.329 9.622-1.781l-.407 2.972c-3.394-.465-5.874.207-7.573 1.32-1.711 1.118-2.73 2.745-3.108 4.367-.383 1.645-.09 3.173.655 4.172z" fill="#000"/><path fill-rule="evenodd" clip-rule="evenodd" d="M25.513 4.361c-.46-.063-.906-.107-1.34-.133l.024-.399c.444.027.9.071 1.37.136l-.054.396zm-4.026-.053c-.948.121-1.81.34-2.591.637l-.142-.374c.81-.308 1.705-.535 2.682-.66l.051.397zm-4.922 1.914a8.65 8.65 0 0 0-1.85 1.897l-.326-.232a9.05 9.05 0 0 1 1.936-1.984l.24.32zm-3.027 4.27a7.636 7.636 0 0 0-.341 2.618l-.4.02a8.037 8.037 0 0 1 .36-2.756l.381.118zm.324 5.147a4.67 4.67 0 0 0 1.773 1.872l-.202.345a5.069 5.069 0 0 1-1.925-2.03l.354-.187zm5.605 2.496c.548-.073 1.07-.106 1.564-.102l-.003.4a10.73 10.73 0 0 0-1.508.099 8.07 8.07 0 0 1-1.401.07l.016-.4c.417.017.861-.004 1.332-.067zm4.622.498a5.848 5.848 0 0 1 2.446 1.946l-.325.234A5.448 5.448 0 0 0 23.93 19l.159-.367zM27.65 23.5a7.27 7.27 0 0 1-.317 3.107l-.38-.124a6.87 6.87 0 0 0 .3-2.936l.397-.047zM8.694 29.526c-1.052-.15-1.962-.135-2.745.012l-.074-.393c.833-.156 1.789-.17 2.875-.015l-.056.396zm17.08-.215a7.818 7.818 0 0 1-2.505 1.852l-.17-.362a7.415 7.415 0 0 0 2.377-1.757l.298.267zM12.7 30.665a22.845 22.845 0 0 0-1.316-.483l.126-.38c.43.143.877.307 1.339.492.488.196.964.37 1.428.52l-.124.38c-.472-.153-.957-.33-1.453-.529zm-9.162.018c-.663.594-1.132 1.371-1.431 2.267l-.38-.127c.317-.948.82-1.79 1.544-2.438l.267.298zm16.73 1.296c-.95.101-1.985.084-3.108-.075l.056-.396a12.26 12.26 0 0 0 3.01.073l.041.398zM1.7 35.657c-.003.898.104 1.83.305 2.751l-.39.085a13.211 13.211 0 0 1-.315-2.837l.4.001zm1.154 5.392a11.97 11.97 0 0 0 1.366 2.4l-.32.24a12.416 12.416 0 0 1-1.413-2.482l.367-.158zm3.345 4.265a3.98 3.98 0 0 0 1.24.49l-.078.392a4.382 4.382 0 0 1-1.365-.537l.203-.345z" fill="#fff"/><path d="M11.5 46.5a3.5 3.5 0 1 1-7 0 3.5 3.5 0 0 1 7 0z" fill="#C4C4C4"/><path d="M9.5 46.5a1.5 1.5 0 1 1-3 0 1.5 1.5 0 0 1 3 0z" fill="#fff"/><path d="M30.5 3.5a3.5 3.5 0 1 1-7 0 3.5 3.5 0 0 1 7 0z" fill="#C4C4C4"/><path d="M28.5 3.5a1.5 1.5 0 1 1-3 0 1.5 1.5 0 0 1 3 0z" fill="#fff"/></svg>