<svg width="62" height="74" fill="none" xmlns="http://www.w3.org/2000/svg"><path d="M61.92 19.054c-.038-1.998-.074-3.886-.074-5.712 0-1.43-1.156-2.59-2.582-2.59-11.046 0-19.455-3.183-26.465-10.019a2.577 2.577 0 0 0-3.6 0c-7.01 6.836-15.418 10.02-26.463 10.02a2.586 2.586 0 0 0-2.582 2.59c0 1.826-.036 3.714-.074 5.712-.354 18.593-.84 44.056 30.073 54.802a2.575 2.575 0 0 0 1.691 0c30.915-10.746 30.43-36.21 30.076-54.803zM31 68.66C4.488 59.002 4.889 37.844 5.244 19.154c.022-1.122.042-2.21.057-3.275 10.344-.438 18.616-3.582 25.698-9.768 7.082 6.186 15.355 9.33 25.7 9.768.015 1.066.036 2.152.057 3.273.355 18.691.756 39.85-25.757 49.51z" fill="#fff"/><path d="M39.892 28.002L27.427 40.503l-5.32-5.335a2.578 2.578 0 0 0-3.651 0 2.596 2.596 0 0 0 0 3.663l7.145 7.167a2.571 2.571 0 0 0 1.826.758c.661 0 1.322-.253 1.826-.758l14.291-14.333a2.595 2.595 0 0 0 0-3.662 2.577 2.577 0 0 0-3.651 0z" fill="#fff"/></svg>