<svg width="92" height="70" fill="none" xmlns="http://www.w3.org/2000/svg"><path d="M67.05 44.21c0 11.565-9.424 20.94-21.05 20.94-11.626 0-21.05-9.375-21.05-20.94 0-11.566 9.424-20.942 21.05-20.942 11.626 0 21.05 9.376 21.05 20.941z" fill="#C4C4C4"/><path d="M41.349 46.93c-1.305-2.81-.095-6.136 2.69-7.416 2.779-1.278 6.095-.033 7.4 2.777L78.96 57.635l-30.515-7.788c-2.715 1.046-5.84-.211-7.097-2.917z" fill="#030104"/><path d="M13.473 13.463C22.162 4.78 33.713 0 46 0c12.287 0 23.839 4.781 32.527 13.463C87.215 22.145 92 33.687 92 45.965c0 7.928-1.999 15.546-5.751 22.288H77.65l-6.288-3.628 2.777-4.806 8.086 4.665a40.396 40.396 0 0 0 4.47-18.519c0-1.18-.054-2.347-.153-3.501l-9.64 1.698-.965-5.466 9.754-1.718c-1.743-7.69-5.673-14.56-11.1-19.92l-6.61 7.87-4.254-3.567 6.66-7.93a40.49 40.49 0 0 0-21.61-8.034v10.527h-5.555V5.397a40.496 40.496 0 0 0-21.61 8.034l6.66 7.93-4.256 3.567-6.61-7.87c-5.426 5.36-9.356 12.23-11.1 19.92l9.755 1.719-.965 5.465-9.64-1.699a41.017 41.017 0 0 0-.153 3.502 40.388 40.388 0 0 0 4.47 18.519l8.087-4.665 2.776 4.806-6.288 3.628H5.751C2 61.51 0 53.893 0 45.965c0-12.278 4.785-23.82 13.473-32.502z" fill="#030104"/></svg>