<svg width="22" height="22" fill="none" xmlns="http://www.w3.org/2000/svg"><path d="M11 0C4.958 0 0 4.958 0 11s4.958 11 11 11 11-4.958 11-11S17.042 0 11 0zm0 19.379c-4.62 0-8.379-3.759-8.379-8.379 0-4.62 3.759-8.379 8.379-8.379 4.62 0 8.379 3.759 8.379 8.379 0 4.62-3.759 8.379-8.379 8.379z" fill="#000"/><path d="M12.29 9.066a1.289 1.289 0 1 1-2.579 0 1.289 1.289 0 0 1 2.578 0z" fill="#000"/><path d="M11 11.645a2.573 2.573 0 0 1-2.44-1.781c-1.705.185-3.296.543-4.646 1.062 0 .025-.004.049-.004.074 0 .745.117 1.463.331 2.138 1.055-.55 2.087-.849 2.892-.849.673 0 1.19.19 1.58.582.9.905 1.003 2.74 1.005 5.097.416.076.844.122 1.282.122.438 0 .866-.046 1.283-.122.001-2.354.104-4.191 1.005-5.097.39-.391.906-.582 1.58-.582.793 0 1.828.287 2.893.845.213-.674.329-1.39.329-2.134 0-.024-.004-.048-.004-.072-1.463-.565-3.081-.893-4.647-1.065A2.573 2.573 0 0 1 11 11.645z" fill="#000"/></svg>