<svg width="82" height="22" fill="none" xmlns="http://www.w3.org/2000/svg"><path d="M18.76.709L14.921 12.52h-2.917L9.422 4.522l-2.666 7.999h-2.9L0 .709h2.817L5.466 9.01 8.232.709h2.515l2.682 8.37 2.733-8.37h2.598zm9.496 7.306c0 .034-.016.27-.05.709h-6.823a2.14 2.14 0 0 0 .871 1.333c.458.326 1.029.49 1.71.49.47 0 .883-.068 1.241-.203.369-.146.71-.371 1.023-.675l1.391 1.519c-.85.978-2.09 1.468-3.722 1.468-1.017 0-1.917-.197-2.699-.59-.782-.406-1.386-.963-1.81-1.671-.425-.71-.638-1.513-.638-2.413 0-.89.207-1.688.62-2.397a4.416 4.416 0 0 1 1.728-1.67c.737-.405 1.559-.608 2.464-.608.883 0 1.682.192 2.397.574a4.105 4.105 0 0 1 1.677 1.654c.414.708.62 1.535.62 2.48zM23.58 5.3c-.593 0-1.09.168-1.492.506-.403.337-.648.798-.738 1.383h4.443c-.09-.573-.336-1.029-.738-1.366-.402-.35-.894-.523-1.475-.523zm11.749-1.993c.838 0 1.598.197 2.28.591a4.08 4.08 0 0 1 1.626 1.637c.391.697.587 1.513.587 2.447 0 .933-.196 1.754-.587 2.463a4.227 4.227 0 0 1-1.626 1.637 4.586 4.586 0 0 1-2.28.574c-1.24 0-2.185-.394-2.833-1.181v1.046h-2.498V0h2.615v4.404c.66-.731 1.565-1.097 2.716-1.097zm-.453 7.189c.671 0 1.219-.225 1.643-.675.436-.461.654-1.075.654-1.84 0-.764-.218-1.372-.654-1.822-.424-.461-.972-.692-1.643-.692-.67 0-1.224.23-1.66.692-.424.45-.637 1.058-.637 1.823 0 .764.213 1.378.638 1.839.435.45.989.675 1.66.675zM52.52.709V12.52h-2.715V7.678h-5.332v4.843h-2.716V.709h2.716v4.657h5.332V.709h2.716zm11.428 7.306c0 .034-.017.27-.05.709h-6.824a2.14 2.14 0 0 0 .872 1.333c.458.326 1.028.49 1.71.49.47 0 .883-.068 1.24-.203a3.11 3.11 0 0 0 1.024-.675l1.391 1.519c-.85.978-2.09 1.468-3.722 1.468-1.017 0-1.917-.197-2.699-.59-.782-.406-1.386-.963-1.81-1.671-.425-.71-.638-1.513-.638-2.413 0-.89.207-1.688.62-2.397.425-.72 1-1.276 1.727-1.67.738-.405 1.56-.608 2.465-.608.883 0 1.682.192 2.397.574a4.104 4.104 0 0 1 1.677 1.654c.413.708.62 1.535.62 2.48zM59.271 5.3c-.593 0-1.09.168-1.492.506-.403.337-.649.798-.738 1.383h4.443c-.09-.573-.336-1.029-.738-1.366-.402-.35-.894-.523-1.475-.523zm8.917-.66a2.92 2.92 0 0 1 1.257-.995c.537-.225 1.151-.338 1.844-.338v2.43a9.382 9.382 0 0 0-.587-.033c-.748 0-1.335.213-1.76.64-.425.417-.637 1.047-.637 1.89v4.287H65.69V3.442h2.498V4.64zm8.866 8.016c-.95 0-1.805-.197-2.565-.59a4.51 4.51 0 0 1-1.76-1.671c-.425-.71-.637-1.513-.637-2.413 0-.9.212-1.705.637-2.413a4.392 4.392 0 0 1 1.76-1.654c.76-.405 1.615-.608 2.565-.608s1.8.203 2.549.608a4.392 4.392 0 0 1 1.76 1.654c.425.708.637 1.513.637 2.413 0 .9-.212 1.704-.637 2.413a4.51 4.51 0 0 1-1.76 1.67c-.75.394-1.599.59-2.549.59zm0-2.16c.67 0 1.219-.225 1.643-.675.436-.461.654-1.075.654-1.84 0-.764-.218-1.372-.654-1.822-.424-.461-.972-.692-1.643-.692-.67 0-1.224.23-1.66.692-.435.45-.653 1.058-.653 1.823 0 .764.218 1.378.654 1.839.435.45.989.675 1.66.675z" fill="#FFD22E"/><path d="M52.974 22c-.505 0-.994-.077-1.466-.231-.467-.16-.834-.367-1.102-.617l.354-.753c.256.232.582.421.977.57a3.7 3.7 0 0 0 1.236.212c.556 0 .971-.094 1.246-.28.274-.193.412-.447.412-.762a.725.725 0 0 0-.23-.559 1.424 1.424 0 0 0-.556-.337 9.664 9.664 0 0 0-.93-.26 9.849 9.849 0 0 1-1.225-.367 2.086 2.086 0 0 1-.795-.56c-.218-.257-.326-.6-.326-1.031 0-.36.092-.685.278-.974.191-.29.479-.52.862-.694.383-.174.859-.26 1.427-.26.396 0 .786.05 1.17.154a3.1 3.1 0 0 1 .986.443l-.316.771a3.343 3.343 0 0 0-.9-.405 3.24 3.24 0 0 0-.94-.144c-.543 0-.951.1-1.226.299-.268.199-.402.456-.402.771 0 .232.076.421.23.57.153.14.341.253.565.336.23.078.54.161.93.251.504.122.91.245 1.216.367.306.122.568.308.785.559.224.25.336.588.336 1.012 0 .354-.096.679-.288.974-.191.29-.482.52-.871.694-.39.168-.87.251-1.438.251zm6.074-.02c-.517 0-.98-.112-1.389-.337a2.484 2.484 0 0 1-.948-.925 2.652 2.652 0 0 1-.345-1.35 2.6 2.6 0 0 1 .345-1.34c.23-.4.546-.708.948-.926a2.834 2.834 0 0 1 1.39-.338c.459 0 .868.094 1.225.28.364.186.645.456.843.81l-.699.453a1.566 1.566 0 0 0-.594-.55 1.686 1.686 0 0 0-.785-.183c-.333 0-.633.074-.901.222a1.61 1.61 0 0 0-.623.636c-.147.27-.22.582-.22.936 0 .36.073.678.22.954.154.27.361.48.623.627.268.148.568.222.9.222.288 0 .55-.061.786-.183s.434-.306.594-.55l.7.444a2.04 2.04 0 0 1-.844.82 2.616 2.616 0 0 1-1.226.279zm5.906-5.216c.645 0 1.156.19 1.533.569.383.373.575.922.575 1.649v2.94h-.92v-2.834c0-.495-.118-.868-.355-1.119-.236-.25-.575-.376-1.015-.376-.498 0-.891.148-1.179.444-.287.29-.43.707-.43 1.253v2.633h-.92v-7.155h.92v2.767c.191-.244.44-.433.747-.568a2.609 2.609 0 0 1 1.044-.203zm6.012 5.216c-.504 0-.958-.112-1.36-.337a2.483 2.483 0 0 1-.948-.925 2.711 2.711 0 0 1-.336-1.35c0-.502.112-.948.335-1.34.23-.4.547-.708.949-.926a2.74 2.74 0 0 1 1.36-.338c.505 0 .955.113 1.351.338.403.218.715.527.939.925a2.6 2.6 0 0 1 .345 1.34c0 .502-.115.952-.345 1.35a2.416 2.416 0 0 1-.939.926 2.684 2.684 0 0 1-1.35.338zm0-.81c.326 0 .617-.073.872-.22.262-.155.466-.367.613-.637a1.98 1.98 0 0 0 .22-.945c0-.354-.073-.666-.22-.936a1.544 1.544 0 0 0-.613-.636 1.708 1.708 0 0 0-.872-.222c-.325 0-.62.074-.881.222-.255.148-.46.36-.613.636-.147.27-.22.582-.22.936 0 .353.073.668.22.945.153.27.358.482.613.636.262.148.556.222.881.222zm6.082.81c-.505 0-.958-.112-1.36-.337a2.484 2.484 0 0 1-.95-.925 2.711 2.711 0 0 1-.335-1.35c0-.502.112-.948.336-1.34.23-.4.546-.708.948-.926a2.742 2.742 0 0 1 1.36-.338c.505 0 .955.113 1.351.338.403.218.716.527.94.925a2.6 2.6 0 0 1 .344 1.34c0 .502-.115.952-.345 1.35a2.403 2.403 0 0 1-.939.926 2.685 2.685 0 0 1-1.35.338zm0-.81c.325 0 .616-.073.871-.22.262-.155.467-.367.614-.637.146-.277.22-.592.22-.945 0-.354-.074-.666-.22-.936a1.546 1.546 0 0 0-.614-.636 1.708 1.708 0 0 0-.871-.222c-.326 0-.62.074-.882.222-.255.148-.46.36-.613.636-.147.27-.22.582-.22.936 0 .353.073.668.22.945.153.27.358.482.613.636.262.148.556.222.882.222zm3.906-6.402h.92v7.155h-.92v-7.155z" fill="#000"/></svg>